<svg width="126" height="25" viewBox="0 0 126 25" fill="none" xmlns="http://www.w3.org/2000/svg">
<g filter="url(#filter0_d_2_4)">
<path d="M10.34 16.28C8.43333 16.28 6.94667 15.7867 5.88 14.8C4.81333 13.8 4.28 12.3467 4.28 10.44C4.28 8.53333 4.81333 7.08667 5.88 6.1C6.94667 5.1 8.42667 4.6 10.32 4.6C11.24 4.6 12.12 4.72667 12.96 4.98C13.8 5.23333 14.4533 5.52 14.92 5.84V9.8H11.48V9.44C11.48 9 11.3867 8.68 11.2 8.48C11.0133 8.26667 10.72 8.16 10.32 8.16C9.54667 8.16 9.16 8.58667 9.16 9.44V11.16C9.16 12.2 9.75333 12.72 10.94 12.72C12.0467 12.72 13.3333 12.6 14.8 12.36V15.5C14.3467 15.7 13.7067 15.88 12.88 16.04C12.0667 16.2 11.22 16.28 10.34 16.28ZM24.1305 4.6C24.3971 4.6 24.6505 4.62667 24.8905 4.68C25.1305 4.73333 25.3305 4.8 25.4905 4.88V8.7C24.9438 8.47333 24.3571 8.36 23.7305 8.36C22.8905 8.36 22.2438 8.58 21.7905 9.02C21.3371 9.46 21.1105 10.1133 21.1105 10.98V12.72H22.9105V16H15.6305V12.72H16.5105V8.16H15.6305V4.88H21.1105V6.34C21.4838 5.78 21.9105 5.35333 22.3905 5.06C22.8705 4.75333 23.4505 4.6 24.1305 4.6ZM32.0973 16.28C30.204 16.28 28.724 15.7867 27.6573 14.8C26.5907 13.8 26.0573 12.3467 26.0573 10.44C26.0573 8.53333 26.5907 7.08667 27.6573 6.1C28.724 5.1 30.204 4.6 32.0973 4.6C34.0173 4.6 35.504 5.10667 36.5573 6.12C37.6107 7.12 38.1373 8.56 38.1373 10.44C38.1373 12.3467 37.604 13.8 36.5373 14.8C35.4707 15.7867 33.9907 16.28 32.0973 16.28ZM32.0973 12.72C32.484 12.72 32.7707 12.62 32.9573 12.42C33.1573 12.2067 33.2573 11.88 33.2573 11.44V9.44C33.2573 9 33.1573 8.68 32.9573 8.48C32.7707 8.26667 32.484 8.16 32.0973 8.16C31.7107 8.16 31.4173 8.26667 31.2173 8.48C31.0307 8.68 30.9373 9 30.9373 9.44V11.44C30.9373 11.88 31.0307 12.2067 31.2173 12.42C31.4173 12.62 31.7107 12.72 32.0973 12.72ZM42.0941 16L39.4541 8.16H38.6141V4.88H44.7941V8.16H43.9541L44.6741 11.28H44.8741L46.3341 4.88H50.0141L51.4741 11.28H51.6741L52.3741 8.16H51.5341V4.88H57.3341V8.16H56.4941L53.9541 16H49.0941L47.9941 10.44H47.7941L46.6941 16H42.0941ZM61.8352 16.28C60.4752 16.28 59.4485 15.7733 58.7552 14.76C58.0752 13.7467 57.7352 12.3067 57.7352 10.44C57.7352 8.57333 58.0752 7.13333 58.7552 6.12C59.4485 5.10667 60.4752 4.6 61.8352 4.6C62.5152 4.6 63.1152 4.76667 63.6352 5.1C64.1685 5.43333 64.6018 5.81333 64.9352 6.24V3.72H63.7552V0.439999H69.5352V12.72H70.4152V16H64.9352V14.64C64.6018 15.0667 64.1685 15.4467 63.6352 15.78C63.1152 16.1133 62.5152 16.28 61.8352 16.28ZM63.7752 12.72C64.1618 12.72 64.4485 12.62 64.6352 12.42C64.8352 12.2067 64.9352 11.88 64.9352 11.44V9.44C64.9352 9 64.8352 8.68 64.6352 8.48C64.4485 8.26667 64.1618 8.16 63.7752 8.16C63.3885 8.16 63.0952 8.26667 62.8952 8.48C62.7085 8.68 62.6152 9 62.6152 9.44V11.44C62.6152 11.88 62.7085 12.2067 62.8952 12.42C63.0952 12.62 63.3885 12.72 63.7752 12.72ZM71.0992 16V12.72H72.0992V3.72H71.0992V0.439999H83.0592V5.62H79.5192V3.72H77.6992V7.04H80.7192V9.32H77.6992V12.72H80.3192V16H71.0992ZM83.6959 16.02V12.72H84.5759V3.72H83.6959V0.439999H89.1759V12.72H90.0559V16.02H83.6959ZM96.6481 16.28C94.7548 16.28 93.2748 15.7867 92.2081 14.8C91.1415 13.8 90.6081 12.3467 90.6081 10.44C90.6081 8.53333 91.1415 7.08667 92.2081 6.1C93.2748 5.1 94.7548 4.6 96.6481 4.6C98.5681 4.6 100.055 5.10667 101.108 6.12C102.161 7.12 102.688 8.56 102.688 10.44C102.688 12.3467 102.155 13.8 101.088 14.8C100.021 15.7867 98.5415 16.28 96.6481 16.28ZM96.6481 12.72C97.0348 12.72 97.3215 12.62 97.5081 12.42C97.7081 12.2067 97.8081 11.88 97.8081 11.44V9.44C97.8081 9 97.7081 8.68 97.5081 8.48C97.3215 8.26667 97.0348 8.16 96.6481 8.16C96.2615 8.16 95.9681 8.26667 95.7681 8.48C95.5815 8.68 95.4881 9 95.4881 9.44V11.44C95.4881 11.88 95.5815 12.2067 95.7681 12.42C95.9681 12.62 96.2615 12.72 96.6481 12.72ZM106.645 16L104.005 8.16H103.165V4.88H109.345V8.16H108.505L109.225 11.28H109.425L110.885 4.88H114.565L116.025 11.28H116.225L116.925 8.16H116.085V4.88H121.885V8.16H121.045L118.505 16H113.645L112.545 10.44H112.345L111.245 16H106.645Z" fill="#00ADB5"/>
</g>
<defs>
<filter id="filter0_d_2_4" x="0.279999" y="0.439941" width="125.605" height="23.8401" filterUnits="userSpaceOnUse" color-interpolation-filters="sRGB">
<feFlood flood-opacity="0" result="BackgroundImageFix"/>
<feColorMatrix in="SourceAlpha" type="matrix" values="0 0 0 0 0 0 0 0 0 0 0 0 0 0 0 0 0 0 127 0" result="hardAlpha"/>
<feOffset dy="4"/>
<feGaussianBlur stdDeviation="2"/>
<feComposite in2="hardAlpha" operator="out"/>
<feColorMatrix type="matrix" values="0 0 0 0 0 0 0 0 0 0 0 0 0 0 0 0 0 0 0.25 0"/>
<feBlend mode="normal" in2="BackgroundImageFix" result="effect1_dropShadow_2_4"/>
<feBlend mode="normal" in="SourceGraphic" in2="effect1_dropShadow_2_4" result="shape"/>
</filter>
</defs>
</svg>
